<?xml version="1.0" encoding="utf-8"?>
<!-- Generator: Adobe Illustrator 27.5.0, SVG Export Plug-In . SVG Version: 6.00 Build 0)  -->
<svg version="1.1" xmlns="http://www.w3.org/2000/svg" xmlns:xlink="http://www.w3.org/1999/xlink" x="0px" y="0px"
	 viewBox="0 0 750 500" style="enable-background:new 0 0 750 500;" xml:space="preserve">
<g id="BACKGROUND">
	<rect style="fill:#FFE3DE;" width="750" height="500"/>
</g>
<g id="OBJECTS">
	<g style="opacity:0.8;">
		<path style="fill:#FFFFFF;" d="M575.472,114.019h108.755c4.406-5.907,6.549-13.231,5.47-20.521
			c-1.079-7.29-6.314-14.118-13.455-15.938c-7.141-1.82-15.625,2.385-17.516,9.508c1.743-5.846,3.29-11.96,2.368-17.989
			c-0.923-6.03-4.911-11.982-10.841-13.413c-5.746-1.387-11.612,1.665-16.326,5.232c-9.754,7.381-17.421,17.489-21.899,28.872
			c0.92-4.082-0.385-8.595-3.34-11.556c-2.956-2.962-7.466-4.275-11.549-3.364c-6.037,1.347-10.16,6.86-13.136,12.283
			C579.464,95.401,577.157,104.737,575.472,114.019z"/>
		<path style="fill:#FFFFFF;" d="M582.278,423.579h121.038c5.447-5.012,7.042-12.715,6.109-20.058
			c-0.933-7.343-6.398-14.119-13.597-15.84c-7.199-1.721-15.55,2.312-18.013,9.292c4.276-10.014,6.576-22.893-0.94-30.771
			c-6.766-7.092-18.83-6.411-27.104-1.155c-8.274,5.256-13.652,13.924-18.747,22.298c2.65-4.203,0.713-10.26-3.412-13.03
			s-9.708-2.632-14.28-0.687c-4.572,1.945-8.289,5.462-11.578,9.186C592.309,393.51,585.565,409.694,582.278,423.579z"/>
		<path style="fill:#FFFFFF;" d="M41.751,413.623h92.87c5.716-5.07,4.154-17.158-2.009-21.674
			c-6.163-4.516-16.221-1.846-19.333,5.132c5.78-5.801,3.435-16.728-3.456-21.153c-6.891-4.424-16.377-3.066-23.121,1.579
			c-6.744,4.645-11.151,11.989-14.365,19.521c2.865-2.909,0.49-8.384-3.384-9.673c-3.874-1.289-8.117,0.402-11.523,2.653
			C49.33,395.362,43.379,404.052,41.751,413.623z"/>
		<path style="fill:#FFFFFF;" d="M196.473,97.231H57.027c3.21-4.125,3.815-9.213,5.451-14.178
			c1.636-4.965,3.478-10.047,7.051-13.862c3.574-3.815,9.338-6.058,14.166-4.053c4.828,2.005,7.091,9.201,3.299,12.799
			c7.278-14.151,17.859-26.59,30.66-36.043c5.862-4.329,13.51-8.157,20.165-5.186c5.252,2.345,8.04,8.406,8.187,14.156
			c0.146,5.75-1.852,11.313-3.822,16.716c3.107-4.668,6.276-9.406,10.582-12.999c4.306-3.593,9.987-5.944,15.515-5.001
			c5.377,0.918,10.06,5.105,11.57,10.347c1.51,5.242-0.226,11.279-4.29,14.917c3.805-8.518,16.57-11.23,23.508-4.994
			C206.008,76.086,204.538,92.542,196.473,97.231z"/>
		<path style="fill:#FFFFFF;" d="M475.804,71.014h78.899c5.018-2.902,6.177-12.086,2.458-16.532
			c-3.72-4.446-11.528-4.466-15.27-0.039c4.449-3.792,3.318-11.694-1.33-15.239c-4.648-3.545-11.383-3.248-16.639-0.691
			c-5.256,2.557-9.323,7.002-13.059,11.498c3.193-1.304,3.514-6.293,0.985-8.638c-2.529-2.345-6.656-2.205-9.654-0.499
			c-2.997,1.706-5.072,4.646-6.814,7.623c-1.742,2.976-3.283,6.124-5.626,8.655c1.516-1.078,0.545-3.775-1.233-4.323
			c-1.778-0.548-3.671,0.363-5.177,1.456C478.315,57.934,475.906,64.802,475.804,71.014z"/>
		<path style="fill:#FFFFFF;" d="M94.186,163.342h67.304c5.007-3.87,5.264-12.368,0.28-16.267
			c-4.984-3.899-13.424-1.779-15.975,4.012c2.856-2.314,4.418-6.131,4.004-9.784c-0.414-3.652-2.79-7.023-6.092-8.64
			c-5.981-2.929-13.294,0.127-18.221,4.607c-4.927,4.48-8.525,10.312-13.683,14.524c1.847-3.36-1.359-7.875-5.18-8.192
			c-3.821-0.317-7.343,2.517-9.043,5.954C95.88,152.993,94.421,159.515,94.186,163.342z"/>
	</g>
	<g>
		<g>
			
				<polyline style="fill:none;stroke:#282323;stroke-width:0.8;stroke-linecap:round;stroke-linejoin:round;stroke-miterlimit:10;" points="
				431.135,338.974 410.366,338.974 446.057,158.974 466.826,158.974 			"/>
			
				<polyline style="fill:none;stroke:#282323;stroke-width:0.8;stroke-linecap:round;stroke-linejoin:round;stroke-miterlimit:10;" points="
				605.288,158.974 626.057,158.974 590.366,338.974 569.597,338.974 			"/>
		</g>
		<polygon style="fill:#FFFFFF;" points="579.264,325.134 426.956,325.134 457.156,172.827 609.464,172.827 		"/>
		<g>
			<g>
				<path style="fill:#282323;" d="M468.259,186.666l-6.864,34.615h34.615l6.864-34.615H468.259z M490.46,214.358h-20.769
					l4.118-20.769h20.769L490.46,214.358z"/>
				<polygon style="fill:#282323;" points="484.91,207.435 477.986,207.435 479.359,200.512 486.282,200.512 				"/>
			</g>
			<g>
				<path style="fill:#282323;" d="M450.412,276.673l-6.864,34.615h34.615l6.864-34.615H450.412z M472.613,304.365h-20.769
					l4.118-20.769h20.769L472.613,304.365z"/>
				<polygon style="fill:#282323;" points="467.063,297.442 460.14,297.442 461.512,290.519 468.435,290.519 				"/>
			</g>
			<g>
				<path style="fill:#282323;" d="M504.334,231.673l-6.864,34.615h34.615l6.864-34.615H504.334z M526.536,259.365h-20.769
					l4.118-20.769h20.769L526.536,259.365z"/>
				<polygon style="fill:#282323;" points="520.985,252.442 514.062,252.442 515.435,245.519 522.358,245.519 				"/>
			</g>
			<g>
				<path style="fill:#282323;" d="M541.784,269.75l-6.864,34.615h34.615l6.864-34.615H541.784z M563.986,297.442h-20.769
					l4.118-20.769h20.769L563.986,297.442z"/>
				<polygon style="fill:#282323;" points="558.435,290.519 551.512,290.519 552.885,283.596 559.808,283.596 				"/>
			</g>
			<polygon style="fill:#282323;" points="492.009,311.288 485.086,311.288 486.459,304.365 493.382,304.365 			"/>
			<polygon style="fill:#282323;" points="507.228,304.365 500.305,304.365 501.678,297.442 508.601,297.442 			"/>
			<polygon style="fill:#282323;" points="509.974,290.519 503.051,290.519 504.423,283.596 511.347,283.596 			"/>
			<polygon style="fill:#282323;" points="501.678,297.442 494.755,297.442 496.128,290.519 503.051,290.519 			"/>
			<polygon style="fill:#282323;" points="487.832,297.442 480.909,297.442 482.282,290.519 489.205,290.519 			"/>
			<polygon style="fill:#282323;" points="498.873,276.673 491.95,276.673 493.323,269.75 500.246,269.75 			"/>
			<polygon style="fill:#282323;" points="519.642,276.673 512.719,276.673 514.092,269.75 521.015,269.75 			"/>
			<polygon style="fill:#282323;" points="525.193,283.596 518.27,283.596 519.642,276.673 526.565,276.673 			"/>
			<polygon style="fill:#282323;" points="529.37,297.442 522.447,297.442 523.82,290.519 530.743,290.519 			"/>
			<polygon style="fill:#282323;" points="523.82,290.519 516.897,290.519 518.27,283.596 525.193,283.596 			"/>
			<polygon style="fill:#282323;" points="521.075,304.365 514.151,304.365 515.524,297.442 522.447,297.442 			"/>
			<polygon style="fill:#282323;" points="519.702,311.288 512.779,311.288 514.151,304.365 521.075,304.365 			"/>
			<polygon style="fill:#282323;" points="486.4,269.75 479.477,269.75 480.849,262.827 487.772,262.827 			"/>
			<polygon style="fill:#282323;" points="543.157,262.827 536.234,262.827 537.607,255.904 544.53,255.904 			"/>
			<polygon style="fill:#282323;" points="550.08,262.827 543.157,262.827 544.53,255.904 551.453,255.904 			"/>
			<polygon style="fill:#282323;" points="557.003,262.827 550.08,262.827 551.453,255.904 558.376,255.904 			"/>
			<polygon style="fill:#282323;" points="557.003,262.827 550.08,262.827 551.453,255.904 558.376,255.904 			"/>
			<polygon style="fill:#282323;" points="478.044,242.058 471.121,242.058 472.494,235.135 479.417,235.135 			"/>
			<polygon style="fill:#282323;" points="486.34,235.135 479.417,235.135 480.79,228.212 487.713,228.212 			"/>
			<polygon style="fill:#282323;" points="584.578,193.589 508.424,193.589 509.797,186.666 585.951,186.666 			"/>
			<polygon style="fill:#282323;" points="529.91,207.435 505.679,207.435 507.051,200.512 531.282,200.512 			"/>
			<polygon style="fill:#282323;" points="551.395,221.281 502.933,221.281 504.306,214.358 552.768,214.358 			"/>
			<polygon style="fill:#282323;" points="496.068,255.904 489.145,255.904 490.518,248.981 497.441,248.981 			"/>
			<polygon style="fill:#282323;" points="501.559,228.212 494.636,228.212 496.009,221.288 502.932,221.288 			"/>
			<polygon style="fill:#282323;" points="498.814,242.058 491.891,242.058 493.263,235.135 500.186,235.135 			"/>
			<polygon style="fill:#282323;" points="464.258,276.673 457.335,276.673 458.707,269.75 465.63,269.75 			"/>
			<polygon style="fill:#282323;" points="487.772,262.827 460.08,262.827 461.453,255.904 489.145,255.904 			"/>
			<polygon style="fill:#282323;" points="490.518,248.981 462.826,248.981 464.198,242.058 491.891,242.058 			"/>
			<polygon style="fill:#282323;" points="458.707,269.75 451.784,269.75 460.021,228.212 466.944,228.212 			"/>
			<polygon style="fill:#282323;" points="533.548,311.288 526.625,311.288 527.998,304.365 534.921,304.365 			"/>
			<polygon style="fill:#282323;" points="554.317,311.288 547.394,311.288 548.767,304.365 555.69,304.365 			"/>
			<polygon style="fill:#282323;" points="568.163,311.288 561.24,311.288 562.613,304.365 569.536,304.365 			"/>
			<polygon style="fill:#282323;" points="577.772,262.827 570.849,262.827 572.222,255.904 579.145,255.904 			"/>
			<polygon style="fill:#282323;" points="569.477,269.75 562.554,269.75 563.926,262.827 570.849,262.827 			"/>
			<polygon style="fill:#282323;" points="565.299,255.904 558.376,255.904 559.749,248.981 566.672,248.981 			"/>
			<polygon style="fill:#282323;" points="559.749,248.981 552.826,248.981 554.198,242.058 561.121,242.058 			"/>
			<polygon style="fill:#282323;" points="554.198,242.058 547.275,242.058 548.648,235.135 555.571,235.135 			"/>
			<polygon style="fill:#282323;" points="548.648,235.135 541.725,235.135 543.098,228.212 550.021,228.212 			"/>
			<polygon style="fill:#282323;" points="556.944,228.212 550.021,228.212 551.393,221.288 558.317,221.288 			"/>
			<polygon style="fill:#282323;" points="554.139,207.442 547.216,207.442 548.589,200.519 555.512,200.519 			"/>
			<polygon style="fill:#282323;" points="540.293,207.442 533.37,207.442 534.742,200.519 541.666,200.519 			"/>
			<polygon style="fill:#282323;" points="545.843,214.365 538.92,214.365 540.293,207.442 547.216,207.442 			"/>
			<polygon style="fill:#282323;" points="548.589,200.519 541.666,200.519 543.038,193.596 549.961,193.596 			"/>
			<polygon style="fill:#282323;" points="561.062,207.442 554.139,207.442 555.512,200.519 562.435,200.519 			"/>
			<polygon style="fill:#282323;" points="566.612,214.365 559.689,214.365 561.062,207.442 567.985,207.442 			"/>
			<polygon style="fill:#282323;" points="572.163,221.288 565.24,221.288 566.612,214.365 573.535,214.365 			"/>
			<polygon style="fill:#282323;" points="576.281,200.519 569.358,200.519 570.731,193.596 577.654,193.596 			"/>
			<polygon style="fill:#282323;" points="569.417,235.135 562.494,235.135 563.867,228.212 570.79,228.212 			"/>
			<polygon style="fill:#282323;" points="583.263,235.135 576.34,235.135 585.951,186.666 592.874,186.666 			"/>
		</g>
		<polygon style="fill:#F42D0C;" points="601.099,249.931 434.945,249.931 435.219,248.546 601.373,248.546 		"/>
		<polygon style="opacity:0.2;fill:#F42D0C;" points="386.338,126.649 601.099,249.931 434.945,249.931 380.55,155.837 		"/>
	</g>
	<g>
		<path style="fill:#ED7B5F;" d="M174.817,282.339c22.52-21.715,49.444-38.844,78.657-50.041
			c38.305,19.311,69.616,51.78,90.029,89.509c-5.785,23.034-8.489,49.726-18.65,72.04H165.426L174.817,282.339z"/>
		<polygon style="fill:#ED7B5F;" points="374.603,185.837 283.577,252.442 342.417,326.318 347.283,323.598 		"/>
		<path style="fill:#ED7B5F;" d="M237.645,239.05c22.175-23.362,60.504-52.264,86.681-71.033
			c6.958-4.989,14.742-8.824,22.938-11.302c2.007-0.607,4.087-1.137,6.177-0.968c2.09,0.169,4.217,1.153,5.274,2.964
			c1.357,2.326,0.647,5.284-0.34,7.789c-2.408,6.109-6.595,13.334-11.092,18.118c-18.193,19.355-42.307,45.613-63.913,69.394
			L237.645,239.05z"/>
		<path style="fill:#ED7B5F;" d="M201.463,243.337c0.332,4.609,0.7,16.391,0.7,16.391l-4.616,3.346L201.463,243.337z"/>
	</g>
	<g>
		<g>
			<path style="fill:#282323;" d="M323.333,393.968H181.594c-5.523,0-9.112-4.477-8.017-10l53.534-269.988
				c1.095-5.523,6.46-10,11.983-10h141.739c5.523,0,9.112,4.477,8.017,10l-53.534,269.988
				C334.22,389.491,328.856,393.968,323.333,393.968z"/>
			<path style="fill:#EBE2E2;" d="M382.753,119.088l-50.19,253.12c-0.55,2.8-3.26,5.06-6.06,5.06h-141.46
				c-2.8,0-4.61-2.26-4.06-5.06l50.19-253.12c0.56-2.8,3.27-5.07,6.07-5.07h141.46C381.503,114.018,383.313,116.287,382.753,119.088
				z"/>
			<g>
				<path style="opacity:0.6;fill:#FFFFFF;" d="M382.757,119.089l-22.109,111.5c-0.625,0.88-1.187,1.8-1.675,2.75
					c-3.036,5.88-3.93,13.01-9.244,17.27c-6.257,5.03-15.149,3.07-21.667,7.75c-7.229,5.19-7.855,15.71-14.579,21.58
					c-2.536,2.2-5.55,3.43-8.66,4.44c-4.144-2.35-8.596-4.51-11.16-8.32c-7.253-10.78,3.524-29.27-2.754-40.73
					c-5.61-10.24-22.61-10.49-26.583-21.67c-2.432-6.85,1.027-15.67-1.061-22.69c-0.485-1.64-1.237-3.09-2.176-4.41
					c5.161-3.99,10.266-8.05,14.079-13.21c6.361-8.63,8.838-19.91,17.479-26.37c6.306-4.72,14.466-5.63,20.696-10.47
					c5.513-4.3,8.469-10.84,12.4-16.54c1.446-2.1,3.253-4.2,5.26-5.95h47.7C381.503,114.019,383.313,116.289,382.757,119.089z"/>
				<path style="opacity:0.4;fill:#FFFFFF;" d="M339.335,338.079l-6.767,34.13c-0.555,2.8-3.263,5.06-6.063,5.06h-141.46
					c-2.8,0-4.612-2.26-4.057-5.06l49.4-249.14c4.258,4.85,6.343,12.09,7.237,19.03c1.37,10.64,1.366,22.36,7.768,30.22
					c5.504,6.74,15.329,10.04,17.872,18.65c2.088,7.02-1.371,15.84,1.061,22.69c3.973,11.18,20.974,11.43,26.583,21.67
					c6.278,11.46-4.499,29.95,2.754,40.73c5.065,7.54,17.535,8.6,20.366,17.47c2.298,7.17-2.934,16.41-0.921,23.71
					c2.21,8.02,11.768,10.3,18.775,14.45C334.755,333.389,337.255,335.559,339.335,338.079z"/>
			</g>
		</g>
		<g>
			<g>
				<path style="fill:#FF9A8D;" d="M309.442,308.337h-80c-8.284,0-13.668-6.716-12.026-15l0,0c1.643-8.284,9.69-15,17.974-15h80
					c8.284,0,13.668,6.716,12.026,15l0,0C325.774,301.622,317.727,308.337,309.442,308.337z"/>
				
					<text transform="matrix(1 0 -0.1945 0.9809 245.8395 299.003)" style="fill:#282323; font-family:'Montserrat-Light'; font-size:18px;">SCAN</text>
			</g>
			<g>
				<g>
					<path style="fill:#FF9A8D;" d="M313.131,334.468h-97.739c-3.372,0-5.583-2.759-4.915-6.13l0,0
						c0.669-3.372,3.974-6.13,7.346-6.13h97.739c3.372,0,5.583,2.759,4.915,6.13l0,0
						C319.808,331.709,316.502,334.468,313.131,334.468z"/>
					<path style="fill:#FFFFFF;" d="M286.317,334.468h-70.925c-3.372,0-5.583-2.759-4.915-6.13l0,0
						c0.669-3.372,3.974-6.13,7.346-6.13h70.925c3.372,0,5.583,2.759,4.915,6.13l0,0
						C292.994,331.709,289.689,334.468,286.317,334.468z"/>
				</g>
				
					<text transform="matrix(1 0 -0.1945 0.9809 254.3421 331.9724)" style="fill:#282323; font-family:'Montserrat-Light'; font-size:10px;">60%</text>
			</g>
			<g>
				<g>
					
						<polyline style="fill:none;stroke:#282323;stroke-width:0.6;stroke-linecap:round;stroke-linejoin:round;stroke-miterlimit:10;" points="
						228.365,263.337 213.365,263.337 239.142,133.337 254.142,133.337 					"/>
					
						<polyline style="fill:none;stroke:#282323;stroke-width:0.6;stroke-linecap:round;stroke-linejoin:round;stroke-miterlimit:10;" points="
						354.142,133.337 369.142,133.337 343.365,263.337 328.365,263.337 					"/>
				</g>
				<polygon style="fill:#FFFFFF;" points="335.347,253.342 225.347,253.342 247.158,143.342 357.158,143.342 				"/>
				<g>
					<g>
						<path style="fill:#282323;" d="M255.176,153.337l-4.957,25h25l4.957-25H255.176z M271.211,173.337h-15l2.974-15h15
							L271.211,173.337z"/>
						<polygon style="fill:#282323;" points="267.202,168.337 262.202,168.337 263.193,163.337 268.193,163.337 						"/>
					</g>
					<g>
						<path style="fill:#282323;" d="M242.287,218.342l-4.957,25h25l4.957-25H242.287z M258.321,238.342h-15l2.974-15h15
							L258.321,238.342z"/>
						<polygon style="fill:#282323;" points="254.313,233.342 249.313,233.342 250.304,228.342 255.304,228.342 						"/>
					</g>
					<g>
						<path style="fill:#282323;" d="M281.231,185.842l-4.957,25h25l4.957-25H281.231z M297.265,205.842h-15l2.974-15h15
							L297.265,205.842z"/>
						<polygon style="fill:#282323;" points="293.257,200.842 288.257,200.842 289.248,195.842 294.248,195.842 						"/>
					</g>
					<g>
						<path style="fill:#282323;" d="M308.278,213.342l-4.957,25h25l4.957-25H308.278z M324.313,233.342h-15l2.974-15h15
							L324.313,233.342z"/>
						<polygon style="fill:#282323;" points="320.304,228.342 315.304,228.342 316.296,223.342 321.296,223.342 						"/>
					</g>
					<polygon style="fill:#282323;" points="272.33,243.342 267.33,243.342 268.321,238.342 273.321,238.342 					"/>
					<polygon style="fill:#282323;" points="283.321,238.342 278.321,238.342 279.313,233.342 284.313,233.342 					"/>
					<polygon style="fill:#282323;" points="285.304,228.342 280.304,228.342 281.296,223.342 286.296,223.342 					"/>
					<polygon style="fill:#282323;" points="279.313,233.342 274.313,233.342 275.304,228.342 280.304,228.342 					"/>
					<polygon style="fill:#282323;" points="269.313,233.342 264.313,233.342 265.304,228.342 270.304,228.342 					"/>
					<polygon style="fill:#282323;" points="277.287,218.342 272.287,218.342 273.278,213.342 278.278,213.342 					"/>
					<polygon style="fill:#282323;" points="292.287,218.342 287.287,218.342 288.278,213.342 293.278,213.342 					"/>
					<polygon style="fill:#282323;" points="296.296,223.342 291.296,223.342 292.287,218.342 297.287,218.342 					"/>
					<polygon style="fill:#282323;" points="299.313,233.342 294.313,233.342 295.304,228.342 300.304,228.342 					"/>
					<polygon style="fill:#282323;" points="295.304,228.342 290.304,228.342 291.296,223.342 296.296,223.342 					"/>
					<polygon style="fill:#282323;" points="293.321,238.342 288.321,238.342 289.313,233.342 294.313,233.342 					"/>
					<polygon style="fill:#282323;" points="292.33,243.342 287.33,243.342 288.321,238.342 293.321,238.342 					"/>
					<polygon style="fill:#282323;" points="268.278,213.342 263.278,213.342 264.27,208.342 269.27,208.342 					"/>
					<polygon style="fill:#282323;" points="309.27,208.342 304.27,208.342 305.261,203.342 310.261,203.342 					"/>
					<polygon style="fill:#282323;" points="314.27,208.342 309.27,208.342 310.261,203.342 315.261,203.342 					"/>
					<polygon style="fill:#282323;" points="319.27,208.342 314.27,208.342 315.261,203.342 320.261,203.342 					"/>
					<polygon style="fill:#282323;" points="319.27,208.342 314.27,208.342 315.261,203.342 320.261,203.342 					"/>
					<polygon style="fill:#282323;" points="262.244,193.342 257.244,193.342 258.235,188.342 263.235,188.342 					"/>
					<polygon style="fill:#282323;" points="268.235,188.342 263.235,188.342 264.227,183.342 269.227,183.342 					"/>
					<polygon style="fill:#282323;" points="339.185,158.337 284.185,158.337 285.176,153.337 340.176,153.337 					"/>
					<polygon style="fill:#282323;" points="299.702,168.337 282.202,168.337 283.193,163.337 300.693,163.337 					"/>
					<polygon style="fill:#282323;" points="315.219,178.337 280.219,178.337 281.211,173.337 316.211,173.337 					"/>
					<polygon style="fill:#282323;" points="275.261,203.342 270.261,203.342 271.253,198.342 276.253,198.342 					"/>
					<polygon style="fill:#282323;" points="279.227,183.342 274.227,183.342 275.218,178.342 280.218,178.342 					"/>
					<polygon style="fill:#282323;" points="277.244,193.342 272.244,193.342 273.235,188.342 278.235,188.342 					"/>
					<polygon style="fill:#282323;" points="252.287,218.342 247.287,218.342 248.278,213.342 253.278,213.342 					"/>
					<polygon style="fill:#282323;" points="269.27,208.342 249.27,208.342 250.261,203.342 270.261,203.342 					"/>
					<polygon style="fill:#282323;" points="271.253,198.342 251.253,198.342 252.244,193.342 272.244,193.342 					"/>
					<polygon style="fill:#282323;" points="248.278,213.342 243.278,213.342 249.227,183.342 254.227,183.342 					"/>
					<polygon style="fill:#282323;" points="302.33,243.342 297.33,243.342 298.321,238.342 303.321,238.342 					"/>
					<polygon style="fill:#282323;" points="317.33,243.342 312.33,243.342 313.321,238.342 318.321,238.342 					"/>
					<polygon style="fill:#282323;" points="327.33,243.342 322.33,243.342 323.321,238.342 328.321,238.342 					"/>
					<polygon style="fill:#282323;" points="334.27,208.342 329.27,208.342 330.261,203.342 335.261,203.342 					"/>
					<polygon style="fill:#282323;" points="328.278,213.342 323.278,213.342 324.27,208.342 329.27,208.342 					"/>
					<polygon style="fill:#282323;" points="325.261,203.342 320.261,203.342 321.253,198.342 326.253,198.342 					"/>
					<polygon style="fill:#282323;" points="321.253,198.342 316.253,198.342 317.244,193.342 322.244,193.342 					"/>
					<polygon style="fill:#282323;" points="317.244,193.342 312.244,193.342 313.235,188.342 318.235,188.342 					"/>
					<polygon style="fill:#282323;" points="313.235,188.342 308.235,188.342 309.227,183.342 314.227,183.342 					"/>
					<polygon style="fill:#282323;" points="319.227,183.342 314.227,183.342 315.218,178.342 320.218,178.342 					"/>
					<polygon style="fill:#282323;" points="317.201,168.342 312.201,168.342 313.193,163.342 318.193,163.342 					"/>
					<polygon style="fill:#282323;" points="307.201,168.342 302.201,168.342 303.193,163.342 308.193,163.342 					"/>
					<polygon style="fill:#282323;" points="311.21,173.342 306.21,173.342 307.201,168.342 312.201,168.342 					"/>
					<polygon style="fill:#282323;" points="313.193,163.342 308.193,163.342 309.184,158.342 314.184,158.342 					"/>
					<polygon style="fill:#282323;" points="322.201,168.342 317.201,168.342 318.193,163.342 323.193,163.342 					"/>
					<polygon style="fill:#282323;" points="326.21,173.342 321.21,173.342 322.201,168.342 327.201,168.342 					"/>
					<polygon style="fill:#282323;" points="330.218,178.342 325.218,178.342 326.21,173.342 331.21,173.342 					"/>
					<polygon style="fill:#282323;" points="333.193,163.342 328.193,163.342 329.184,158.342 334.184,158.342 					"/>
					<polygon style="fill:#282323;" points="328.235,188.342 323.235,188.342 324.227,183.342 329.227,183.342 					"/>
					<polygon style="fill:#282323;" points="338.235,188.342 333.235,188.342 340.176,153.337 345.176,153.337 					"/>
				</g>
				<polygon style="fill:#F42D0C;" points="351.116,199.029 231.117,199.029 231.315,198.029 351.315,198.029 				"/>
			</g>
		</g>
		<path style="opacity:0.4;fill:#FFFFFF;" d="M217.123,377.267h-32.08c-2.8,0-4.61-2.26-4.06-5.06l50.19-253.12
			c0.56-2.8,3.27-5.07,6.07-5.07h134.87C308.193,148.568,213.363,253.337,217.123,377.267z"/>
	</g>
	<g>
		<path style="fill:#ED7B5F;" d="M223.413,177.678c-1.37,5.7-4.04,11.01-7.09,16.01c-5.81,9.55-13.08,18.21-21.49,25.58
			c1.76,3.86,3.27,7.53,4.4,11.29c1.24,4.06,2.03,8.21,2.23,12.78l-7.57,38.15l-20.32,102.48l-10.61,24.68
			c-24.36-26.98-33.52-63.12-32.68-98.77c0.32-13.21,2.99-26.37,7.84-38.67c5.93-15.04,13.74-28.69,17.21-44.64
			c4.03-18.51,2.27-40.73,31.73-54.55c6.44-8.71,14.55-16.82,23.23-23.3c5.64,1.58,10.15,6.23,12.32,11.67
			C224.783,165.837,224.783,171.977,223.413,177.678z"/>
		<path style="fill:#ED7B5F;" d="M324.853,393.848c-0.65,3.27-1.61,6.54-2.88,9.75c-6.97,17.75-23.1,33.99-46.46,41.11
			l-112.55-36.06l10.89-26.08l-0.28,1.4c-1.09,5.52,2.5,10,8.02,10h141.74C323.843,393.967,324.353,393.927,324.853,393.848z"/>
		<path style="fill:#ED7B5F;" d="M272.983,453.378c-3.93,15.16-5.469,31.003-5.009,46.622l-144.031-0.003
			c8.8-13.7,20.11-34.23,26.28-49.3c4.46-10.88,7.72-22.83,8.24-34.7c0.19-4.55-0.01-9.1-0.71-13.56c0,0,0,0.01,0.01,0.01
			l117.75,42.26C274.583,447.568,273.743,450.457,272.983,453.378z"/>
		<path style="fill:#ED7B5F;" d="M403.993,188.107c-0.78,2.34-2.21,4.39-3.69,6.35c-7.67,10.25-16.89,19.49-27.26,27.03
			c-2.08,1.53-4.2,2.97-6.37,4.35l6.21-31.32v-0.02l1.72-8.66c5.015-3.231,10.34-6.99,16.49-8.29c2.25-0.48,4.6-0.73,6.85-0.27
			c2.26,0.46,4.43,1.71,5.6,3.7C404.793,183.087,404.763,185.777,403.993,188.107z"/>
		<path style="fill:#ED7B5F;" d="M396.783,274.758c-0.46,2.93-1.82,5.63-3.33,8.17c-5.35,9.01-12.69,16.71-20.74,23.43
			c-5.96,4.97-12.23,8.88-18.65,12.91c-2.25,1.41-4.51,2.84-6.78,4.33l7.03-35.43v-0.03l2.44-12.27
			c6.79-5.23,14.82-8.86,23.04-11.29c2.54-0.75,5.17-1.37,7.82-1.23c2.64,0.14,5.34,1.1,7.1,3.08
			C396.683,268.638,397.243,271.837,396.783,274.758z"/>
		<path style="fill:#ED7B5F;" d="M403.573,224.928c-0.04,3.34-1.36,6.53-2.9,9.5c-4.69,9.04-11.62,16.78-19.32,23.46
			c-5.69,4.92-11.76,9.3-17.96,13.52c-2.2,1.5-4.42,2.98-6.64,4.46l7.39-37.27l2.53-12.76c6.85-5.28,15-8.35,23.49-10.06
			c3.05-0.61,6.41-0.92,9.11,0.63C402.173,218.068,403.623,221.587,403.573,224.928z"/>
		<path style="fill:#FFB1A0;" d="M187.029,171.776c1.034,1.332,2.304,2.481,3.733,3.376c5.374-2.442,10.445-5.68,14.18-10.25
			c3.736-4.571,6.067-10.441,5.703-16.333c-4.004,0.771-10.899,7.034-15.461,11.528C191.775,163.455,188.65,167.274,187.029,171.776
			z"/>
		<g>
			<path style="fill:#BD543B;" d="M208.013,422.797c-9.46,3.72-20.15,5.03-30.04,2.68c-7.09-1.68-13.79-4.96-19.51-9.48
				c0.19-4.55-0.01-9.1-0.71-13.56c0,0,0,0.01,0.01,0.01C158.343,403.128,178.323,426.078,208.013,422.797z"/>
			<path style="fill:#BD543B;" d="M275.513,444.707c-0.93,2.86-1.77,5.75-2.53,8.67c-10.93,1.06-22.09-2.64-30.73-9.64
				C253.193,446.628,264.413,446.938,275.513,444.707z"/>
			<path style="fill:#BD543B;" d="M324.853,393.848c-0.65,3.27-1.61,6.54-2.88,9.75l-88.33-9.63L324.853,393.848z"/>
			<path style="fill:#BD543B;" d="M354.313,288.168l-0.25,31.1c-2.25,1.41-4.51,2.84-6.78,4.33L354.313,288.168z"/>
			<path style="fill:#BD543B;" d="M364.143,238.598l-0.75,32.81c-2.2,1.5-4.42,2.98-6.64,4.46L364.143,238.598z"/>
			<path style="fill:#BD543B;" d="M373.043,221.488c-2.08,1.53-4.2,2.97-6.37,4.35l6.21-31.32L373.043,221.488z"/>
			<path style="fill:#BD543B;" d="M201.463,243.337l-7.57,38.15l5.34-50.93C200.473,234.617,201.263,238.768,201.463,243.337z"/>
		</g>
		<g>
			<path style="fill:none;stroke:#BD543B;stroke-width:0.8;stroke-linecap:round;stroke-linejoin:round;stroke-miterlimit:10;" d="
				M201.816,440.576c1.032-1.969,0.272-4.568-1.421-6.007c-1.693-1.44-4.101-1.83-6.291-1.45c-3.366,0.585-6.269,2.814-8.364,5.512
				c-2.096,2.699-3.491,5.863-4.866,8.991c-6.632,15.091-13.263,30.182-19.895,45.272"/>
			<path style="fill:none;stroke:#BD543B;stroke-width:0.8;stroke-linecap:round;stroke-linejoin:round;stroke-miterlimit:10;" d="
				M213.778,447.376c2.67-1.415,6.136-2.774,8.48-0.867c2.135,1.737,1.842,5.021,1.354,7.73
				c-2.113,11.709-4.226,23.418-6.339,35.128"/>
			<path style="fill:none;stroke:#BD543B;stroke-width:0.8;stroke-linecap:round;stroke-linejoin:round;stroke-miterlimit:10;" d="
				M199.371,452.417c-4.459,12.818-8.918,25.635-13.377,38.453"/>
			<path style="fill:none;stroke:#BD543B;stroke-width:0.8;stroke-linecap:round;stroke-linejoin:round;stroke-miterlimit:10;" d="
				M163.361,197.27c2.914-0.542,5.981-0.225,8.723,0.9"/>
			<path style="fill:none;stroke:#BD543B;stroke-width:0.8;stroke-linecap:round;stroke-linejoin:round;stroke-miterlimit:10;" d="
				M165.426,193.893c2.501-0.52,5.132-0.403,7.577,0.337"/>
			<path style="fill:none;stroke:#BD543B;stroke-width:0.8;stroke-linecap:round;stroke-linejoin:round;stroke-miterlimit:10;" d="
				M167.117,189.042c3.047-0.461,6.193-0.26,9.157,0.583"/>
			<path style="fill:none;stroke:#BD543B;stroke-width:0.8;stroke-linecap:round;stroke-linejoin:round;stroke-miterlimit:10;" d="
				M397.013,184.619c-3.302,0.311-6.464,1.921-8.656,4.41c-1.121,1.272-2.021,3.063-1.352,4.621
				c0.598,1.389,2.513,2.032,3.805,1.246c1.293-0.786,1.585-2.831,0.532-3.917c-0.874-0.902-2.277-1.01-3.528-0.899
				c-3.121,0.276-6.142,1.577-8.487,3.656"/>
			<path style="fill:none;stroke:#BD543B;stroke-width:0.8;stroke-linecap:round;stroke-linejoin:round;stroke-miterlimit:10;" d="
				M397.013,223.342c-4.039,0.359-7.966,1.904-11.167,4.395c-1.526,1.187-2.924,2.637-3.616,4.443
				c-0.692,1.805-0.555,4.018,0.719,5.472c1.463,1.671,4.303,1.878,5.993,0.437c1.69-1.44,1.936-4.277,0.518-5.986
				c-1.334-1.609-3.639-2.024-5.726-1.936c-5.668,0.238-11.108,3.585-13.876,8.538"/>
			<path style="fill:none;stroke:#BD543B;stroke-width:0.8;stroke-linecap:round;stroke-linejoin:round;stroke-miterlimit:10;" d="
				M385.881,272.552c-5.248,0.637-10.108,3.909-12.674,8.531c-1.175,2.117-1.867,4.769-0.776,6.931
				c1.214,2.404,4.682,3.318,6.909,1.804c2.227-1.515,2.639-5.104,0.796-7.068c-1.998-2.128-5.503-1.905-8.169-0.717
				c-4.014,1.788-7.154,5.433-8.329,9.666"/>
		</g>
	</g>
	<g>
		<path style="fill:#ED7B5F;" d="M395.138,415.584c-21.332-36.388-45.43-71.153-72.016-103.899
			c-1.553-1.913-3.155-3.855-5.248-5.156c-5.523-3.433-13.343-1.217-17.425,3.845s-4.879,12.167-3.582,18.539
			c1.007,4.943,3.164,9.458,5.456,13.912c2.096,4.074,3.492,8.483,5.528,12.664c4.827,9.912,9.654,19.823,14.481,29.735
			c9.654,19.823,19.308,39.647,28.962,59.47c8.978,18.436,18.296,36.866,27.274,55.302L567.685,500
			c-7.304-20.075-18.766-45.34-31.342-65.087c-3.073-4.825-6.443-9.553-10.833-13.22c-4.39-3.667-9.934-6.218-15.653-6.075
			c-5.719,0.143-11.51,3.347-13.801,8.589c-4.971-5.836-9.651-11.903-16.048-16.129c-6.397-4.226-14.326-6.69-21.812-5.035
			c-7.486,1.656-14.112,8.153-14.355,15.816c-2.968-9.755-13.158-17.069-23.317-17.958
			C410.367,400.012,399.756,406.493,395.138,415.584z"/>
		<path style="fill:#FFB1A0;" d="M327.395,329.616c0.977-0.592,1.616-1.981,1.127-3.013c-3.108-6.563-7.882-12.435-13.704-16.774
			c-5,0.335-9.76,3.24-12.344,7.534c1.429,6.215,4.251,12.383,8.2,17.39c0.793,1.006,2.262,0.857,3.538,0.736
			c1.275-0.121,2.496-0.565,3.685-1.043C321.025,333.19,324.512,331.363,327.395,329.616z"/>
		<g>
			<path style="fill:none;stroke:#BD543B;stroke-width:0.8;stroke-linecap:round;stroke-linejoin:round;stroke-miterlimit:10;" d="
				M322.578,354.741c5.047-3.3,10.093-6.6,15.139-9.899"/>
			<path style="fill:none;stroke:#BD543B;stroke-width:0.8;stroke-linecap:round;stroke-linejoin:round;stroke-miterlimit:10;" d="
				M321.569,351.182c4.035-3.447,8.581-6.294,13.445-8.417"/>
			<path style="fill:none;stroke:#BD543B;stroke-width:0.8;stroke-linecap:round;stroke-linejoin:round;stroke-miterlimit:10;" d="
				M318.751,346.527c3.747-2.51,7.494-5.02,11.241-7.53"/>
			<path style="fill:none;stroke:#BD543B;stroke-width:0.8;stroke-linecap:round;stroke-linejoin:round;stroke-miterlimit:10;" d="
				M349.667,397.749c5.282-3.824,10.564-7.648,15.846-11.472"/>
			<path style="fill:none;stroke:#BD543B;stroke-width:0.8;stroke-linecap:round;stroke-linejoin:round;stroke-miterlimit:10;" d="
				M346.741,393.597c5.654-3.997,11.309-7.993,16.963-11.99"/>
			<path style="fill:none;stroke:#BD543B;stroke-width:0.8;stroke-linecap:round;stroke-linejoin:round;stroke-miterlimit:10;" d="
				M343.227,387.98c4.401-4.019,9.381-7.403,14.737-10.015"/>
			<path style="fill:none;stroke:#BD543B;stroke-width:0.8;stroke-linecap:round;stroke-linejoin:round;stroke-miterlimit:10;" d="
				M440.347,465.58c5.126-7.732,8.276-16.762,9.072-26.005c0.221-2.567-0.146-5.801-2.561-6.696
				c-2.114-0.784-4.486,1.015-5.12,3.179c-0.634,2.164-0.016,4.481,0.698,6.62c2.997,8.988,7.719,17.398,13.832,24.638"/>
			<path style="fill:none;stroke:#BD543B;stroke-width:0.8;stroke-linecap:round;stroke-linejoin:round;stroke-miterlimit:10;" d="
				M495.745,460.725c5.305-6.521,8.492-14.738,8.97-23.131c0.1-1.766,0.06-3.636-0.836-5.161c-0.896-1.526-2.913-2.524-4.497-1.737
				c-1.229,0.61-1.826,2.094-1.77,3.465c0.056,1.371,0.643,2.658,1.251,3.888c3.649,7.374,8.473,14.164,14.235,20.036"/>
			<path style="fill:none;stroke:#BD543B;stroke-width:0.8;stroke-linecap:round;stroke-linejoin:round;stroke-miterlimit:10;" d="
				M378.288,448.096c5.114-6.538,12.339-11.399,20.322-13.674"/>
			<path style="fill:none;stroke:#BD543B;stroke-width:0.8;stroke-linecap:round;stroke-linejoin:round;stroke-miterlimit:10;" d="
				M383.228,450.756c4.564-2.711,9.128-5.423,13.692-8.134"/>
		</g>
	</g>
</g>
</svg>
